<svg width="1200" height="400" viewBox="0 0 1200 400" xmlns="http://www.w3.org/2000/svg">
  <!-- Middle distance houses - Layer 02 -->
  <defs>
    <linearGradient id="houseGradient" x1="0%" y1="0%" x2="0%" y2="100%">
      <stop offset="0%" style="stop-color:#4d7c9f;stop-opacity:0.9" />
      <stop offset="100%" style="stop-color:#4d7c9f;stop-opacity:0.7" />
    </linearGradient>
    <linearGradient id="windowGradient" x1="0%" y1="0%" x2="0%" y2="100%">
      <stop offset="0%" style="stop-color:#e8f4fa;stop-opacity:1" />
      <stop offset="100%" style="stop-color:#d0e6f2;stop-opacity:1" />
    </linearGradient>
  </defs>
  
  <!-- Neighborhood row 1 - Further back -->
  <g opacity="0.8">
    <path d="M20,400 L20,320 L90,280 L160,320 L160,400 Z" fill="#6690b1" />
    <path d="M180,400 L180,310 L250,270 L320,310 L320,400 Z" fill="#6690b1" />
    <path d="M340,400 L340,325 L410,285 L480,325 L480,400 Z" fill="#6690b1" />
    <path d="M500,400 L500,315 L570,275 L640,315 L640,400 Z" fill="#6690b1" />
    <path d="M660,400 L660,305 L730,265 L800,305 L800,400 Z" fill="#6690b1" />
    <path d="M820,400 L820,330 L890,290 L960,330 L960,400 Z" fill="#6690b1" />
    <path d="M980,400 L980,320 L1050,280 L1120,320 L1120,400 Z" fill="#6690b1" />
    
    <!-- Windows for neighborhood row 1 -->
    <rect x="50" y="350" width="20" height="20" fill="#d0e6f2" opacity="0.5" />
    <rect x="90" y="350" width="20" height="20" fill="#d0e6f2" opacity="0.5" />
    <rect x="210" y="340" width="20" height="20" fill="#d0e6f2" opacity="0.5" />
    <rect x="250" y="340" width="20" height="20" fill="#d0e6f2" opacity="0.5" />
    <rect x="370" y="345" width="20" height="20" fill="#d0e6f2" opacity="0.5" />
    <rect x="410" y="345" width="20" height="20" fill="#d0e6f2" opacity="0.5" />
    <rect x="530" y="335" width="20" height="20" fill="#d0e6f2" opacity="0.5" />
    <rect x="570" y="335" width="20" height="20" fill="#d0e6f2" opacity="0.5" />
    <rect x="690" y="340" width="20" height="20" fill="#d0e6f2" opacity="0.5" />
    <rect x="730" y="340" width="20" height="20" fill="#d0e6f2" opacity="0.5" />
    <rect x="850" y="350" width="20" height="20" fill="#d0e6f2" opacity="0.5" />
    <rect x="890" y="350" width="20" height="20" fill="#d0e6f2" opacity="0.5" />
    <rect x="1010" y="345" width="20" height="20" fill="#d0e6f2" opacity="0.5" />
    <rect x="1050" y="345" width="20" height="20" fill="#d0e6f2" opacity="0.5" />
  </g>
  
  <!-- Main middle layer houses -->
  <g fill="url(#houseGradient)">
    <!-- House 1 -->
    <path d="M50,400 L50,300 L150,250 L250,300 L250,400 Z" />
    <!-- Roof details -->
    <path d="M150,250 L155,245 L245,302 L245,308 L250,300 Z" fill="#3a6a8f" />
    <!-- Windows -->
    <rect x="90" y="330" width="30" height="70" fill="url(#windowGradient)" />
    <rect x="90" y="330" width="30" height="5" fill="#bfd4e8" />
    <rect x="90" y="350" width="30" height="5" fill="#bfd4e8" />
    <rect x="90" y="370" width="30" height="5" fill="#bfd4e8" />
    <rect x="170" y="330" width="30" height="40" fill="url(#windowGradient)" />
    <rect x="170" y="330" width="30" height="5" fill="#bfd4e8" />
    <rect x="170" y="350" width="30" height="5" fill="#bfd4e8" />
    <!-- Door -->
    <rect x="140" y="350" width="20" height="50" fill="#395e79" />
    
    <!-- House 2 -->
    <path d="M300,400 L300,310 L400,260 L500,310 L500,400 Z" />
    <!-- Roof details -->
    <path d="M400,260 L405,255 L495,312 L495,318 L500,310 Z" fill="#3a6a8f" />
    <!-- Windows -->
    <rect x="340" y="340" width="25" height="60" fill="url(#windowGradient)" />
    <rect x="340" y="340" width="25" height="4" fill="#bfd4e8" />
    <rect x="340" y="360" width="25" height="4" fill="#bfd4e8" />
    <rect x="340" y="380" width="25" height="4" fill="#bfd4e8" />
    <rect x="430" y="340" width="30" height="35" fill="url(#windowGradient)" />
    <rect x="430" y="340" width="30" height="4" fill="#bfd4e8" />
    <rect x="430" y="355" width="30" height="4" fill="#bfd4e8" />
    <!-- Door -->
    <rect x="390" y="350" width="20" height="50" fill="#395e79" />
    
    <!-- House 3 -->
    <path d="M550,400 L550,290 L650,240 L750,290 L750,400 Z" />
    <!-- Roof details -->
    <path d="M650,240 L655,235 L745,292 L745,298 L750,290 Z" fill="#3a6a8f" />
    <!-- Windows -->
    <rect x="590" y="320" width="30" height="80" fill="url(#windowGradient)" />
    <rect x="590" y="320" width="30" height="5" fill="#bfd4e8" />
    <rect x="590" y="345" width="30" height="5" fill="#bfd4e8" />
    <rect x="590" y="370" width="30" height="5" fill="#bfd4e8" />
    <rect x="680" y="320" width="30" height="45" fill="url(#windowGradient)" />
    <rect x="680" y="320" width="30" height="5" fill="#bfd4e8" />
    <rect x="680" y="345" width="30" height="5" fill="#bfd4e8" />
    <!-- Door -->
    <rect x="640" y="340" width="20" height="60" fill="#395e79" />
    
    <!-- House 4 - Larger building -->
    <path d="M800,400 L800,260 L900,200 L1000,260 L1000,400 Z" />
    <!-- Roof details -->
    <path d="M900,200 L905,195 L995,262 L995,268 L1000,260 Z" fill="#3a6a8f" />
    <!-- Windows -->
    <rect x="840" y="300" width="35" height="100" fill="url(#windowGradient)" />
    <rect x="840" y="300" width="35" height="6" fill="#bfd4e8" />
    <rect x="840" y="330" width="35" height="6" fill="#bfd4e8" />
    <rect x="840" y="360" width="35" height="6" fill="#bfd4e8" />
    <rect x="925" y="300" width="30" height="40" fill="url(#windowGradient)" />
    <rect x="925" y="300" width="30" height="6" fill="#bfd4e8" />
    <rect x="925" y="320" width="30" height="6" fill="#bfd4e8" />
    <rect x="925" y="360" width="30" height="40" fill="url(#windowGradient)" />
    <rect x="925" y="360" width="30" height="6" fill="#bfd4e8" />
    <rect x="925" y="380" width="30" height="6" fill="#bfd4e8" />
    <!-- Door -->
    <rect x="890" y="340" width="25" height="60" fill="#395e79" />
    
    <!-- House 5 -->
    <path d="M1050,400 L1050,270 L1150,220 L1250,270 L1250,400 Z" />
    <!-- Roof details -->
    <path d="M1150,220 L1155,215 L1245,272 L1245,278 L1250,270 Z" fill="#3a6a8f" />
    <!-- Windows -->
    <rect x="1090" y="320" width="30" height="80" fill="url(#windowGradient)" />
    <rect x="1090" y="320" width="30" height="5" fill="#bfd4e8" />
    <rect x="1090" y="345" width="30" height="5" fill="#bfd4e8" />
    <rect x="1090" y="370" width="30" height="5" fill="#bfd4e8" />
    <rect x="1180" y="330" width="35" height="40" fill="url(#windowGradient)" />
    <rect x="1180" y="330" width="35" height="5" fill="#bfd4e8" />
    <rect x="1180" y="350" width="35" height="5" fill="#bfd4e8" />
    <!-- Door -->
    <rect x="1140" y="350" width="20" height="50" fill="#395e79" />
  </g>
  
  <!-- Trees and bushes -->
  <g>
    <!-- Tree trunks -->
    <rect x="270" y="380" width="6" height="20" fill="#2c4859" />
    <rect x="520" y="375" width="6" height="25" fill="#2c4859" />
    <rect x="770" y="380" width="6" height="20" fill="#2c4859" />
    <rect x="1020" y="375" width="6" height="25" fill="#2c4859" />
    
    <!-- Tree tops -->
    <circle cx="273" cy="370" r="20" fill="#3d6f8e" />
    <circle cx="523" cy="365" r="25" fill="#3d6f8e" />
    <circle cx="773" cy="370" r="20" fill="#3d6f8e" />
    <circle cx="1023" cy="365" r="25" fill="#3d6f8e" />
    
    <!-- Bushes -->
    <circle cx="200" cy="390" r="10" fill="#2c5f7e" />
    <circle cx="450" cy="385" r="12" fill="#2c5f7e" />
    <circle cx="700" cy="390" r="10" fill="#2c5f7e" />
    <circle cx="950" cy="385" r="12" fill="#2c5f7e" />
  </g>
  
  <!-- Shadows/highlights -->
  <path d="M0,400 C200,390 400,395 600,390 C800,385 1000,390 1200,395 L1200,400 L0,400 Z" fill="#3a6a8f" opacity="0.2" />
</svg> 