<svg width="1200" height="400" viewBox="0 0 1200 400" xmlns="http://www.w3.org/2000/svg">
  <!-- Foreground houses - Layer 01 -->
  <defs>
    <linearGradient id="houseGradient" x1="0%" y1="0%" x2="0%" y2="100%">
      <stop offset="0%" style="stop-color:#1e4a6c;stop-opacity:1" />
      <stop offset="100%" style="stop-color:#1a3d5c;stop-opacity:1" />
    </linearGradient>
    <linearGradient id="windowGradient" x1="0%" y1="0%" x2="0%" y2="100%">
      <stop offset="0%" style="stop-color:#ffffff;stop-opacity:1" />
      <stop offset="100%" style="stop-color:#f0f0f0;stop-opacity:1" />
    </linearGradient>
    <filter id="shadow" x="-20%" y="-20%" width="140%" height="140%">
      <feDropShadow dx="2" dy="2" stdDeviation="3" flood-opacity="0.3" />
    </filter>
  </defs>
  
  <g>
    <!-- House 1 -->
    <path d="M0,400 L0,280 L100,220 L200,280 L200,400 Z" fill="url(#houseGradient)" filter="url(#shadow)" />
    <!-- Roof details -->
    <path d="M100,220 L105,215 L200,273 L200,280 Z" fill="#12344f" />
    <!-- Windows -->
    <rect x="40" y="310" width="40" height="70" fill="url(#windowGradient)" filter="url(#shadow)" />
    <path d="M40,310 L80,310 L80,315 L40,315 Z" fill="#cad5e0" />
    <path d="M40,345 L80,345 L80,350 L40,350 Z" fill="#cad5e0" />
    <rect x="120" y="310" width="40" height="50" fill="url(#windowGradient)" filter="url(#shadow)" />
    <path d="M120,310 L160,310 L160,315 L120,315 Z" fill="#cad5e0" />
    <path d="M120,335 L160,335 L160,340 L120,340 Z" fill="#cad5e0" />
    <!-- Door -->
    <rect x="90" y="350" width="20" height="50" fill="#12344f" />
    <circle cx="105" cy="375" r="2" fill="#e6c465" />
    
    <!-- House 2 - Enhanced -->
    <path d="M220,400 L220,260 L320,200 L420,260 L420,400 Z" fill="url(#houseGradient)" filter="url(#shadow)" />
    <!-- Roof details -->
    <path d="M320,200 L325,195 L420,253 L420,260 Z" fill="#12344f" />
    <!-- Chimney -->
    <rect x="350" y="180" width="15" height="30" fill="#1a3d5c" />
    <rect x="348" y="180" width="19" height="5" fill="#12344f" />
    <!-- Windows -->
    <rect x="260" y="290" width="30" height="110" fill="url(#windowGradient)" filter="url(#shadow)" />
    <path d="M260,290 L290,290 L290,295 L260,295 Z" fill="#cad5e0" />
    <path d="M260,325 L290,325 L290,330 L260,330 Z" fill="#cad5e0" />
    <path d="M260,360 L290,360 L290,365 L260,365 Z" fill="#cad5e0" />
    <rect x="350" y="290" width="40" height="50" fill="url(#windowGradient)" filter="url(#shadow)" />
    <path d="M350,290 L390,290 L390,295 L350,295 Z" fill="#cad5e0" />
    <path d="M350,315 L390,315 L390,320 L350,320 Z" fill="#cad5e0" />
    <rect x="350" y="350" width="40" height="50" fill="url(#windowGradient)" filter="url(#shadow)" />
    <path d="M350,350 L390,350 L390,355 L350,355 Z" fill="#cad5e0" />
    <path d="M350,375 L390,375 L390,380 L350,380 Z" fill="#cad5e0" />
    <!-- Door -->
    <rect x="310" y="350" width="25" height="50" fill="#12344f" />
    <circle cx="328" cy="375" r="2" fill="#e6c465" />
    
    <!-- House 3 - Enhanced -->
    <path d="M450,400 L450,240 L550,180 L650,240 L650,400 Z" fill="url(#houseGradient)" filter="url(#shadow)" />
    <!-- Roof details -->
    <path d="M550,180 L555,175 L650,233 L650,240 Z" fill="#12344f" />
    <!-- Chimney -->
    <rect x="520" y="160" width="15" height="30" fill="#1a3d5c" />
    <rect x="518" y="160" width="19" height="5" fill="#12344f" />
    <!-- Windows -->
    <rect x="490" y="270" width="35" height="130" fill="url(#windowGradient)" filter="url(#shadow)" />
    <path d="M490,270 L525,270 L525,275 L490,275 Z" fill="#cad5e0" />
    <path d="M490,305 L525,305 L525,310 L490,310 Z" fill="#cad5e0" />
    <path d="M490,340 L525,340 L525,345 L490,345 Z" fill="#cad5e0" />
    <path d="M490,375 L525,375 L525,380 L490,380 Z" fill="#cad5e0" />
    <rect x="565" y="290" width="40" height="50" fill="url(#windowGradient)" filter="url(#shadow)" />
    <path d="M565,290 L605,290 L605,295 L565,295 Z" fill="#cad5e0" />
    <path d="M565,315 L605,315 L605,320 L565,320 Z" fill="#cad5e0" />
    <rect x="565" y="350" width="40" height="50" fill="url(#windowGradient)" filter="url(#shadow)" />
    <path d="M565,350 L605,350 L605,355 L565,355 Z" fill="#cad5e0" />
    <path d="M565,375 L605,375 L605,380 L565,380 Z" fill="#cad5e0" />
    <!-- Door -->
    <rect x="535" y="340" width="25" height="60" fill="#12344f" />
    <circle cx="553" cy="370" r="2" fill="#e6c465" />
    
    <!-- House 4 - Enhanced -->
    <path d="M680,400 L680,260 L780,200 L880,260 L880,400 Z" fill="url(#houseGradient)" filter="url(#shadow)" />
    <!-- Roof details -->
    <path d="M780,200 L785,195 L880,253 L880,260 Z" fill="#12344f" />
    <!-- Chimney -->
    <rect x="810" y="180" width="15" height="30" fill="#1a3d5c" />
    <rect x="808" y="180" width="19" height="5" fill="#12344f" />
    <!-- Windows -->
    <rect x="720" y="290" width="40" height="110" fill="url(#windowGradient)" filter="url(#shadow)" />
    <path d="M720,290 L760,290 L760,295 L720,295 Z" fill="#cad5e0" />
    <path d="M720,325 L760,325 L760,330 L720,330 Z" fill="#cad5e0" />
    <path d="M720,360 L760,360 L760,365 L720,365 Z" fill="#cad5e0" />
    <rect x="800" y="290" width="40" height="50" fill="url(#windowGradient)" filter="url(#shadow)" />
    <path d="M800,290 L840,290 L840,295 L800,295 Z" fill="#cad5e0" />
    <path d="M800,315 L840,315 L840,320 L800,320 Z" fill="#cad5e0" />
    <rect x="800" y="350" width="40" height="50" fill="url(#windowGradient)" filter="url(#shadow)" />
    <path d="M800,350 L840,350 L840,355 L800,355 Z" fill="#cad5e0" />
    <path d="M800,375 L840,375 L840,380 L800,380 Z" fill="#cad5e0" />
    <!-- Door -->
    <rect x="770" y="350" width="25" height="50" fill="#12344f" />
    <circle cx="788" cy="375" r="2" fill="#e6c465" />
    
    <!-- House 5 - Enhanced -->
    <path d="M900,400 L900,280 L1000,220 L1100,280 L1100,400 Z" fill="url(#houseGradient)" filter="url(#shadow)" />
    <!-- Roof details -->
    <path d="M1000,220 L1005,215 L1100,273 L1100,280 Z" fill="#12344f" />
    <!-- Windows -->
    <rect x="950" y="310" width="30" height="90" fill="url(#windowGradient)" filter="url(#shadow)" />
    <path d="M950,310 L980,310 L980,315 L950,315 Z" fill="#cad5e0" />
    <path d="M950,340 L980,340 L980,345 L950,345 Z" fill="#cad5e0" />
    <path d="M950,370 L980,370 L980,375 L950,375 Z" fill="#cad5e0" />
    <rect x="1020" y="310" width="40" height="50" fill="url(#windowGradient)" filter="url(#shadow)" />
    <path d="M1020,310 L1060,310 L1060,315 L1020,315 Z" fill="#cad5e0" />
    <path d="M1020,335 L1060,335 L1060,340 L1020,340 Z" fill="#cad5e0" />
    <!-- Door -->
    <rect x="990" y="350" width="25" height="50" fill="#12344f" />
    <circle cx="1008" cy="375" r="2" fill="#e6c465" />
  </g>
  
  <!-- Trees and bushes -->
  <g>
    <!-- Tree trunks -->
    <rect x="178" y="370" width="6" height="30" fill="#0c2235" />
    <rect x="438" y="370" width="8" height="30" fill="#0c2235" />
    <rect x="628" y="380" width="5" height="20" fill="#0c2235" />
    <rect x="848" y="375" width="7" height="25" fill="#0c2235" />
    <rect x="1118" y="370" width="8" height="30" fill="#0c2235" />
    
    <!-- Tree tops -->
    <ellipse cx="180" cy="360" rx="25" ry="30" fill="#143454" filter="url(#shadow)" />
    <ellipse cx="440" cy="360" rx="30" ry="35" fill="#143454" filter="url(#shadow)" />
    <ellipse cx="630" cy="370" rx="20" ry="25" fill="#143454" filter="url(#shadow)" />
    <ellipse cx="850" cy="360" rx="25" ry="30" fill="#143454" filter="url(#shadow)" />
    <ellipse cx="1120" cy="355" rx="30" ry="35" fill="#143454" filter="url(#shadow)" />
    
    <!-- Bush highlights -->
    <ellipse cx="180" cy="355" rx="15" ry="18" fill="#1d4c72" opacity="0.5" />
    <ellipse cx="440" cy="355" rx="18" ry="20" fill="#1d4c72" opacity="0.5" />
    <ellipse cx="630" cy="365" rx="12" ry="15" fill="#1d4c72" opacity="0.5" />
    <ellipse cx="850" cy="355" rx="15" ry="18" fill="#1d4c72" opacity="0.5" />
    <ellipse cx="1120" cy="350" rx="18" ry="20" fill="#1d4c72" opacity="0.5" />
  </g>
  
  <!-- Ground path -->
  <path d="M0,400 C150,390 300,395 450,385 C600,375 750,390 900,385 C1050,380 1200,390 1200,390 L1200,400 L0,400 Z" fill="#102d43" opacity="0.3" />
  
  <!-- Subtle shadows at the base of houses -->
  <rect x="0" y="395" width="200" height="5" fill="#0c2235" opacity="0.4" />
  <rect x="220" y="395" width="200" height="5" fill="#0c2235" opacity="0.4" />
  <rect x="450" y="395" width="200" height="5" fill="#0c2235" opacity="0.4" />
  <rect x="680" y="395" width="200" height="5" fill="#0c2235" opacity="0.4" />
  <rect x="900" y="395" width="200" height="5" fill="#0c2235" opacity="0.4" />
</svg> 