<svg width="1200" height="400" viewBox="0 0 1200 400" xmlns="http://www.w3.org/2000/svg">
  <!-- Background city skyline - Layer 03 -->
  <!-- Base gradient for the sky -->
  <defs>
    <linearGradient id="skyGradient" x1="0%" y1="0%" x2="0%" y2="100%">
      <stop offset="0%" style="stop-color:#f0f9ff;stop-opacity:1" />
      <stop offset="100%" style="stop-color:#d6eaf8;stop-opacity:1" />
    </linearGradient>
    <linearGradient id="buildingGradient" x1="0%" y1="0%" x2="0%" y2="100%">
      <stop offset="0%" style="stop-color:#a3d5e9;stop-opacity:0.9" />
      <stop offset="100%" style="stop-color:#a3d5e9;stop-opacity:0.7" />
    </linearGradient>
    <linearGradient id="buildingGradient2" x1="0%" y1="0%" x2="0%" y2="100%">
      <stop offset="0%" style="stop-color:#9ccae0;stop-opacity:0.9" />
      <stop offset="100%" style="stop-color:#9ccae0;stop-opacity:0.7" />
    </linearGradient>
    <linearGradient id="buildingGradientDark" x1="0%" y1="0%" x2="0%" y2="100%">
      <stop offset="0%" style="stop-color:#8abcd5;stop-opacity:0.9" />
      <stop offset="100%" style="stop-color:#8abcd5;stop-opacity:0.7" />
    </linearGradient>
  </defs>

  <!-- Sky background -->
  <rect x="0" y="0" width="1200" height="400" fill="url(#skyGradient)" />
  
  <!-- Far distant horizon mist -->
  <rect x="0" y="150" width="1200" height="100" fill="#e8f4fa" opacity="0.4" />
  
  <!-- Background buildings - farthest row -->
  <g fill="url(#buildingGradient)" opacity="0.5">
    <rect x="30" y="210" width="20" height="190" />
    <rect x="60" y="230" width="15" height="170" />
    <rect x="85" y="200" width="25" height="200" />
    <rect x="120" y="220" width="20" height="180" />
    <rect x="150" y="190" width="30" height="210" />
    <rect x="190" y="210" width="25" height="190" />
    <rect x="225" y="180" width="20" height="220" />
    <rect x="255" y="210" width="15" height="190" />
    <rect x="280" y="220" width="20" height="180" />
    <rect x="310" y="195" width="25" height="205" />
    <rect x="345" y="215" width="15" height="185" />
    <rect x="370" y="205" width="20" height="195" />
    <rect x="400" y="225" width="15" height="175" />
    <rect x="425" y="215" width="20" height="185" />
    <rect x="455" y="190" width="20" height="210" />
    <rect x="485" y="210" width="25" height="190" />
    <rect x="520" y="200" width="15" height="200" />
    <rect x="545" y="215" width="20" height="185" />
    <rect x="575" y="195" width="25" height="205" />
    <rect x="610" y="220" width="20" height="180" />
    <rect x="640" y="210" width="15" height="190" />
    <rect x="665" y="190" width="20" height="210" />
    <rect x="695" y="205" width="25" height="195" />
    <rect x="730" y="215" width="15" height="185" />
    <rect x="755" y="200" width="20" height="200" />
    <rect x="785" y="220" width="25" height="180" />
    <rect x="820" y="205" width="15" height="195" />
    <rect x="845" y="215" width="20" height="185" />
    <rect x="875" y="195" width="25" height="205" />
    <rect x="910" y="210" width="20" height="190" />
    <rect x="940" y="220" width="15" height="180" />
    <rect x="965" y="200" width="20" height="200" />
    <rect x="995" y="215" width="25" height="185" />
    <rect x="1030" y="195" width="20" height="205" />
    <rect x="1060" y="210" width="15" height="190" />
    <rect x="1085" y="220" width="20" height="180" />
    <rect x="1115" y="205" width="25" height="195" />
    <rect x="1150" y="215" width="20" height="185" />
  </g>

  <!-- Main Skyscrapers - Enhanced with more detail and varied heights/widths -->
  <g>
    <!-- Left side buildings -->
    <rect x="10" y="160" width="40" height="240" fill="url(#buildingGradient)" />
    <rect x="15" y="140" width="30" height="20" fill="url(#buildingGradient)" /> <!-- Top structure -->
    
    <rect x="60" y="180" width="35" height="220" fill="url(#buildingGradient2)" />
    
    <rect x="105" y="120" width="45" height="280" fill="url(#buildingGradient)" />
    <rect x="115" y="100" width="25" height="20" fill="url(#buildingGradient)" /> <!-- Antenna/spire -->
    
    <rect x="160" y="150" width="35" height="250" fill="url(#buildingGradientDark)" />
    
    <path d="M205,400 L205,90 L235,70 L265,90 L265,400 Z" fill="url(#buildingGradient2)" />
    <rect x="225" y="60" width="20" height="15" fill="url(#buildingGradient2)" /> <!-- Antenna/spire -->
    
    <!-- Central area skyscrapers - Start with wide ones -->
    <rect x="275" y="40" width="80" height="360" fill="url(#buildingGradient)" />
    <path d="M275,40 L315,20 L355,40 Z" fill="url(#buildingGradient)" /> <!-- Pointed top -->
    
    <rect x="365" y="120" width="40" height="280" fill="url(#buildingGradientDark)" />
    <rect x="370" y="110" width="30" height="10" fill="url(#buildingGradientDark)" /> <!-- Top structure -->
    
    <rect x="415" y="100" width="55" height="300" fill="url(#buildingGradient2)" />
    <rect x="430" y="80" width="25" height="20" fill="url(#buildingGradient2)" /> <!-- Antenna/spire -->
    
    <rect x="480" y="50" width="60" height="350" fill="url(#buildingGradient)" />
    <path d="M480,50 L510,25 L540,50 Z" fill="url(#buildingGradient)" /> <!-- Pointed top -->
    
    <path d="M550,400 L550,30 L610,10 L670,30 L670,400 Z" fill="url(#buildingGradientDark)" />
    <rect x="610" y="0" width="10" height="10" fill="url(#buildingGradientDark)" /> <!-- Antenna/spire -->
    
    <!-- Super-tall central building -->
    <rect x="680" y="15" width="90" height="385" fill="url(#buildingGradient)" />
    <path d="M680,15 L725,0 L770,15 Z" fill="url(#buildingGradient)" /> <!-- Pointed top -->
    
    <!-- Wide central building -->
    <rect x="780" y="80" width="75" height="320" fill="url(#buildingGradient2)" />
    <rect x="795" y="60" width="45" height="20" fill="url(#buildingGradient2)" /> <!-- Top structure -->
    
    <!-- Right side buildings -->
    <rect x="865" y="110" width="50" height="290" fill="url(#buildingGradient)" />
    
    <rect x="925" y="130" width="45" height="270" fill="url(#buildingGradientDark)" />
    <rect x="935" y="110" width="25" height="20" fill="url(#buildingGradientDark)" /> <!-- Top structure -->
    
    <rect x="980" y="70" width="65" height="330" fill="url(#buildingGradient)" />
    <path d="M980,70 L1012,50 L1045,70 Z" fill="url(#buildingGradient)" /> <!-- Pointed top -->
    
    <rect x="1055" y="140" width="40" height="260" fill="url(#buildingGradient2)" />
    
    <rect x="1105" y="110" width="50" height="290" fill="url(#buildingGradientDark)" />
    <rect x="1115" y="90" width="30" height="20" fill="url(#buildingGradientDark)" /> <!-- Top structure -->
    
    <rect x="1165" y="160" width="35" height="240" fill="url(#buildingGradient)" />
  </g>
  
  <!-- Windows for main buildings -->
  <g fill="#f7fcfd" opacity="0.5">
    <!-- Left buildings windows - Evenly spaced rows -->
    <g>
      <!-- Windows for building at x=10 -->
      <rect x="20" y="170" width="8" height="10" />
      <rect x="32" y="170" width="8" height="10" />
      <rect x="20" y="190" width="8" height="10" />
      <rect x="32" y="190" width="8" height="10" />
      <rect x="20" y="210" width="8" height="10" />
      <rect x="32" y="210" width="8" height="10" />
      <rect x="20" y="230" width="8" height="10" />
      <rect x="32" y="230" width="8" height="10" />
      <rect x="20" y="250" width="8" height="10" />
      <rect x="32" y="250" width="8" height="10" />
      <rect x="20" y="270" width="8" height="10" />
      <rect x="32" y="270" width="8" height="10" />
      <rect x="20" y="290" width="8" height="10" />
      <rect x="32" y="290" width="8" height="10" />
      <rect x="20" y="310" width="8" height="10" />
      <rect x="32" y="310" width="8" height="10" />
      <rect x="20" y="330" width="8" height="10" />
      <rect x="32" y="330" width="8" height="10" />
      <rect x="20" y="350" width="8" height="10" />
      <rect x="32" y="350" width="8" height="10" />
    </g>
    
    <!-- Windows for building at x=105 -->
    <g>
      <rect x="115" y="130" width="10" height="10" />
      <rect x="130" y="130" width="10" height="10" />
      <rect x="115" y="150" width="10" height="10" />
      <rect x="130" y="150" width="10" height="10" />
      <rect x="115" y="170" width="10" height="10" />
      <rect x="130" y="170" width="10" height="10" />
      <rect x="115" y="190" width="10" height="10" />
      <rect x="130" y="190" width="10" height="10" />
      <rect x="115" y="210" width="10" height="10" />
      <rect x="130" y="210" width="10" height="10" />
      <rect x="115" y="230" width="10" height="10" />
      <rect x="130" y="230" width="10" height="10" />
      <rect x="115" y="250" width="10" height="10" />
      <rect x="130" y="250" width="10" height="10" />
      <rect x="115" y="270" width="10" height="10" />
      <rect x="130" y="270" width="10" height="10" />
      <rect x="115" y="290" width="10" height="10" />
      <rect x="130" y="290" width="10" height="10" />
      <rect x="115" y="310" width="10" height="10" />
      <rect x="130" y="310" width="10" height="10" />
    </g>
    
    <!-- Windows for wide building at x=275 -->
    <g>
      <rect x="290" y="60" width="12" height="12" />
      <rect x="312" y="60" width="12" height="12" />
      <rect x="334" y="60" width="12" height="12" />
      
      <rect x="290" y="85" width="12" height="12" />
      <rect x="312" y="85" width="12" height="12" />
      <rect x="334" y="85" width="12" height="12" />
      
      <rect x="290" y="110" width="12" height="12" />
      <rect x="312" y="110" width="12" height="12" />
      <rect x="334" y="110" width="12" height="12" />
      
      <rect x="290" y="135" width="12" height="12" />
      <rect x="312" y="135" width="12" height="12" />
      <rect x="334" y="135" width="12" height="12" />
      
      <rect x="290" y="160" width="12" height="12" />
      <rect x="312" y="160" width="12" height="12" />
      <rect x="334" y="160" width="12" height="12" />
      
      <rect x="290" y="185" width="12" height="12" />
      <rect x="312" y="185" width="12" height="12" />
      <rect x="334" y="185" width="12" height="12" />
      
      <rect x="290" y="210" width="12" height="12" />
      <rect x="312" y="210" width="12" height="12" />
      <rect x="334" y="210" width="12" height="12" />
    </g>
    
    <!-- Windows for very wide building at x=550 -->
    <g>
      <rect x="575" y="50" width="10" height="10" />
      <rect x="595" y="50" width="10" height="10" />
      <rect x="615" y="50" width="10" height="10" />
      <rect x="635" y="50" width="10" height="10" />
      
      <rect x="575" y="75" width="10" height="10" />
      <rect x="595" y="75" width="10" height="10" />
      <rect x="615" y="75" width="10" height="10" />
      <rect x="635" y="75" width="10" height="10" />
      
      <rect x="575" y="100" width="10" height="10" />
      <rect x="595" y="100" width="10" height="10" />
      <rect x="615" y="100" width="10" height="10" />
      <rect x="635" y="100" width="10" height="10" />
      
      <rect x="575" y="125" width="10" height="10" />
      <rect x="595" y="125" width="10" height="10" />
      <rect x="615" y="125" width="10" height="10" />
      <rect x="635" y="125" width="10" height="10" />
      
      <rect x="575" y="150" width="10" height="10" />
      <rect x="595" y="150" width="10" height="10" />
      <rect x="615" y="150" width="10" height="10" />
      <rect x="635" y="150" width="10" height="10" />
    </g>
    
    <!-- Windows for tallest building at x=680 -->
    <g>
      <rect x="700" y="30" width="12" height="12" />
      <rect x="722" y="30" width="12" height="12" />
      <rect x="744" y="30" width="12" height="12" />
      
      <rect x="700" y="55" width="12" height="12" />
      <rect x="722" y="55" width="12" height="12" />
      <rect x="744" y="55" width="12" height="12" />
      
      <rect x="700" y="80" width="12" height="12" />
      <rect x="722" y="80" width="12" height="12" />
      <rect x="744" y="80" width="12" height="12" />
      
      <rect x="700" y="105" width="12" height="12" />
      <rect x="722" y="105" width="12" height="12" />
      <rect x="744" y="105" width="12" height="12" />
      
      <rect x="700" y="130" width="12" height="12" />
      <rect x="722" y="130" width="12" height="12" />
      <rect x="744" y="130" width="12" height="12" />
      
      <rect x="700" y="155" width="12" height="12" />
      <rect x="722" y="155" width="12" height="12" />
      <rect x="744" y="155" width="12" height="12" />
      
      <rect x="700" y="180" width="12" height="12" />
      <rect x="722" y="180" width="12" height="12" />
      <rect x="744" y="180" width="12" height="12" />
      
      <rect x="700" y="205" width="12" height="12" />
      <rect x="722" y="205" width="12" height="12" />
      <rect x="744" y="205" width="12" height="12" />
    </g>
    
    <!-- Windows for wide building at x=780 -->
    <g>
      <rect x="795" y="95" width="10" height="10" />
      <rect x="815" y="95" width="10" height="10" />
      <rect x="835" y="95" width="10" height="10" />
      
      <rect x="795" y="120" width="10" height="10" />
      <rect x="815" y="120" width="10" height="10" />
      <rect x="835" y="120" width="10" height="10" />
      
      <rect x="795" y="145" width="10" height="10" />
      <rect x="815" y="145" width="10" height="10" />
      <rect x="835" y="145" width="10" height="10" />
      
      <rect x="795" y="170" width="10" height="10" />
      <rect x="815" y="170" width="10" height="10" />
      <rect x="835" y="170" width="10" height="10" />
      
      <rect x="795" y="195" width="10" height="10" />
      <rect x="815" y="195" width="10" height="10" />
      <rect x="835" y="195" width="10" height="10" />
      
      <rect x="795" y="220" width="10" height="10" />
      <rect x="815" y="220" width="10" height="10" />
      <rect x="835" y="220" width="10" height="10" />
    </g>
    
    <!-- Windows for wide building at x=980 -->
    <g>
      <rect x="995" y="90" width="10" height="10" />
      <rect x="1015" y="90" width="10" height="10" />
      <rect x="1035" y="90" width="10" height="10" />
      
      <rect x="995" y="115" width="10" height="10" />
      <rect x="1015" y="115" width="10" height="10" />
      <rect x="1035" y="115" width="10" height="10" />
      
      <rect x="995" y="140" width="10" height="10" />
      <rect x="1015" y="140" width="10" height="10" />
      <rect x="1035" y="140" width="10" height="10" />
      
      <rect x="995" y="165" width="10" height="10" />
      <rect x="1015" y="165" width="10" height="10" />
      <rect x="1035" y="165" width="10" height="10" />
      
      <rect x="995" y="190" width="10" height="10" />
      <rect x="1015" y="190" width="10" height="10" />
      <rect x="1035" y="190" width="10" height="10" />
    </g>
  </g>

  <!-- Distant hills and smaller buildings with layered effect -->
  <g opacity="0.6">
    <path d="M0,400 C100,380 200,390 300,370 C400,360 500,380 600,385 C700,390 800,375 900,380 C1000,385 1100,370 1200,390 L1200,400 L0,400 Z" fill="#83b8d4" />
    <path d="M0,400 C150,375 300,385 450,365 C600,355 750,375 900,380 C1050,385 1200,365 1200,385 L1200,400 L0,400 Z" fill="#a3d5e9" opacity="0.5" />
    <path d="M0,400 C200,370 400,380 600,360 C800,350 1000,370 1200,380 L1200,400 L0,400 Z" fill="#c2e5f5" opacity="0.4" />
  </g>
  
  <!-- Morning/evening glow effect -->
  <rect x="0" y="150" width="1200" height="100" fill="#f8fbfe" opacity="0.1" />
  
  <!-- Subtle cloud/mist elements -->
  <path d="M100,200 C150,190 200,210 250,200 C300,190 350,200 400,195 C450,190 500,200 550,195 S650,190 700,200 S800,190 850,185 S950,200 1000,190 S1100,200 1150,190 L1200,200 L1200,230 L0,230 L0,210 Z" fill="white" opacity="0.1" />
  <path d="M0,180 C50,170 100,190 150,180 C200,170 250,180 300,175 C350,170 400,180 450,175 S550,170 600,180 S700,170 750,165 S850,180 900,170 S1000,180 1050,170 S1150,180 1200,170 L1200,200 L0,200 L0,190 Z" fill="white" opacity="0.1" />
</svg> 